<svg version="1.1" id="Layer_1" xmlns="http://www.w3.org/2000/svg" xmlns:xlink="http://www.w3.org/1999/xlink" x="0px" y="0px" viewBox="0 0 46 46" style="enable-background:new 0 0 46 46;" xml:space="preserve">
 <style type="text/css">
  .st0{fill:#DA2032;}
	.st1{fill:#241A16;}
 </style>
 <g>
  <path class="st0" d="M32.5,25.9c-1.4,0-2.5-1.1-2.5-2.4c0-1.3,1.1-2.5,2.5-2.5c1.3,0,2.4,1.1,2.4,2.5
		C34.9,24.8,33.8,25.9,32.5,25.9">
  </path>
  <path class="st1" d="M23,5.1c4.5,0,8.7,1.2,12.3,3.3l4.3-3.3C34.8,1.9,29.1,0,23,0C16.9,0,11.2,1.9,6.5,5.1l4.2,3.3
		C14.3,6.3,18.5,5.1,23,5.1">
  </path>
  <path class="st1" d="M10.7,37.7L6.5,41C11.2,44.2,16.9,46,23,46c6.1,0,11.8-1.9,16.5-5.1l-4.3-3.3C31.7,39.8,27.5,41,23,41
		C18.5,41,14.3,39.8,10.7,37.7">
  </path>
  <path class="st1" d="M5,23c0-4.4,1.2-8.6,3.3-12.3L5,6.5C1.9,11.2,0,16.9,0,23c0,6.1,1.9,11.8,5,16.5l3.3-4.3C6.3,31.7,5,27.5,5,23
		">
  </path>
  <path class="st1" d="M37.6,35.3l3.3,4.3C44.1,34.8,46,29.2,46,23c0-6.1-1.9-11.8-5.1-16.5l-3.3,4.2c2.1,3.6,3.3,7.8,3.3,12.3
		C40.9,27.5,39.7,31.7,37.6,35.3">
  </path>
  <path class="st1" d="M15.5,34.1c-2.3,0-4.4-0.6-6.2-2H9.3V32v-4v-0.4l0.3,0.3c0.5,0.6,2.5,2.6,5.7,2.6c2.5,0,2.7-1.8,2.7-2.6
		c0-1.6-1.6-2.4-3.5-3.3l-0.1-0.1C12,23.3,9.3,22,9.3,18.6c0-3.2,2.6-5.5,6.3-5.7H16c3.2,0,4.7,1.2,5,1.4l0.1,0.1v0.1v3.4v0.3
		L20.8,18c-1.1-1-2.9-1.6-4.6-1.6c-0.8,0-1.5,0.1-1.9,0.4c-0.8,0.4-1.1,0.9-1.1,1.8c0,1.1,1.3,1.7,2.9,2.5l0.3,0.1
		c2,1.1,5.5,2.9,5.5,6.8c0,1.7-0.7,3.4-1.8,4.4C18.9,33.5,17.3,34.1,15.5,34.1">
  </path>
  <path class="st1" d="M28,34.2h-0.2h-3.6h-0.2V34V14.4v-0.1l0.1-0.1c0.1-0.1,3.4-1.3,6.8-1.3c3.7,0,5.6,1.4,5.6,1.4l0.1,0.1v0.1v3.4
		v0.3L36.5,18c-0.4-0.2-2-1.4-5-1.5h-0.2c-1.6,0-2.7,0.3-3.2,0.5L28,17.1v0.1V34V34.2z">
  </path>
 </g>
</svg>