<?xml version="1.0" encoding="UTF-8" standalone="no"?>
<!DOCTYPE svg PUBLIC "-//W3C//DTD SVG 1.1//EN" "http://www.w3.org/Graphics/SVG/1.1/DTD/svg11.dtd">
<svg width="100%" height="100%" viewBox="0 0 100 100" version="1.1" xmlns="http://www.w3.org/2000/svg" xmlns:xlink="http://www.w3.org/1999/xlink" xml:space="preserve" xmlns:serif="http://www.serif.com/" style="fill-rule:evenodd;clip-rule:evenodd;stroke-linecap:round;stroke-linejoin:round;stroke-miterlimit:1.5;">
    <g transform="matrix(1,0,0,1,-426,-183)">
        <g id="Box">
            <g id="Outer-Container" serif:id="Outer Container" transform="matrix(1,0,0,1,48,0)">
                <circle cx="428" cy="233" r="50" style="fill:rgb(223,215,255);"/>
            </g>
            <g id="Animation" transform="matrix(0.54,0,0,0.54,244.88,107.18)">
                <circle cx="428" cy="233" r="50" style="fill:rgb(105,80,208);stroke:rgb(105,80,208);stroke-width:6.17px;"/>
            </g>
            <g id="Inner-Container" serif:id="Inner Container" transform="matrix(0.7,0,0,0.7,176.4,69.9)">
                <circle cx="428" cy="233" r="50" style="fill:rgb(105,80,208);"/>
            </g>
            <g transform="matrix(0.500701,0,0,0.500701,476,232.424059)">
                <g transform="matrix(1,0,0,1,-50,-50)">
                    <g transform="matrix(4.166667,0,0,4.166667,0,0)">
                        <path d="M21,7L21,12M3,7L3,17.161C3,18.544 4.946,19.366 8.837,21.009C10.4,21.67 11.182,22 12,22L12,11.355" style="fill:none;fill-rule:nonzero;stroke:white;stroke-width:1.5px;stroke-miterlimit:4;"/>
                    </g>
                    <g transform="matrix(4.166667,0,0,4.166667,0,0)">
                        <path d="M15,19C15,19 15.875,19 16.75,21C16.75,21 19.529,16 22,15" style="fill:none;fill-rule:nonzero;stroke:white;stroke-width:1.5px;stroke-miterlimit:4;"/>
                    </g>
                    <g transform="matrix(4.166667,0,0,4.166667,0,0)">
                        <path d="M8.326,9.691L5.405,8.278C3.802,7.502 3,7.114 3,6.5C3,5.886 3.802,5.498 5.405,4.722L8.326,3.309C10.129,2.436 11.03,2 12,2C12.97,2 13.871,2.436 15.674,3.309L18.595,4.722C20.198,5.498 21,5.886 21,6.5C21,7.114 20.198,7.502 18.595,8.278L15.674,9.691C13.871,10.564 12.97,11 12,11C11.03,11 10.129,10.564 8.326,9.691Z" style="fill:none;fill-rule:nonzero;stroke:white;stroke-width:1.5px;stroke-miterlimit:4;"/>
                    </g>
                    <g transform="matrix(4.166667,0,0,4.166667,0,0)">
                        <path d="M6,12L8,13" style="fill:none;fill-rule:nonzero;stroke:white;stroke-width:1.5px;stroke-miterlimit:4;"/>
                    </g>
                    <g transform="matrix(4.166667,0,0,4.166667,0,0)">
                        <path d="M17,4L7,9" style="fill:none;fill-rule:nonzero;stroke:white;stroke-width:1.5px;stroke-miterlimit:4;"/>
                    </g>
                </g>
            </g>
        </g>
    </g>
</svg>
