<?xml version="1.0" encoding="UTF-8" standalone="no"?>
<!DOCTYPE svg PUBLIC "-//W3C//DTD SVG 1.1//EN" "http://www.w3.org/Graphics/SVG/1.1/DTD/svg11.dtd">
<svg width="100%" height="100%" viewBox="0 0 100 100" version="1.1" xmlns="http://www.w3.org/2000/svg" xmlns:xlink="http://www.w3.org/1999/xlink" xml:space="preserve" xmlns:serif="http://www.serif.com/" style="fill-rule:evenodd;clip-rule:evenodd;stroke-linecap:round;stroke-linejoin:round;stroke-miterlimit:1.5;">
    <g transform="matrix(1,0,0,1,-132,-183)">
        <g id="Document">
            <g id="Outer-Container" serif:id="Outer Container" transform="matrix(0.680272,0,0,0.680272,42.204082,58.510204)">
                <path d="M279,218.28L279,294.72C279,314.192 263.192,330 243.72,330L167.28,330C147.808,330 132,314.192 132,294.72L132,218.28C132,198.808 147.808,183 167.28,183L243.72,183C263.192,183 279,198.808 279,218.28Z" style="fill:rgb(230,231,235);"/>
            </g>
            <g id="Animation" transform="matrix(0.367347,0,0,0.367347,106.510204,138.77551)">
                <path d="M279,218.28L279,294.72C279,314.192 263.192,330 243.72,330L167.28,330C147.808,330 132,314.192 132,294.72L132,218.28C132,198.808 147.808,183 167.28,183L243.72,183C263.192,183 279,198.808 279,218.28Z" style="fill:rgb(30,30,30);stroke:rgb(30,30,30);stroke-width:9.07px;"/>
            </g>
            <g id="Inner-Container" serif:id="Inner Container" transform="matrix(0.47619,0,0,0.47619,84.142857,110.857143)">
                <path d="M279,218.28L279,294.72C279,314.192 263.192,330 243.72,330L167.28,330C147.808,330 132,314.192 132,294.72L132,218.28C132,198.808 147.808,183 167.28,183L243.72,183C263.192,183 279,198.808 279,218.28Z" style="fill:rgb(30,30,30);"/>
            </g>
            <g transform="matrix(0.48,0,0,0.48,184,233)">
                <g transform="matrix(1,0,0,1,-50,-50)">
                    <g transform="matrix(4.166667,0,0,4.166667,0,0)">
                        <path d="M14.98,7.016C14.98,7.016 15.48,7.516 15.98,8.516C15.98,8.516 17.569,6.016 18.98,5.516" style="fill:none;fill-rule:nonzero;stroke:white;stroke-width:1.5px;stroke-miterlimit:4;"/>
                    </g>
                    <g transform="matrix(4.166667,0,0,4.166667,0,0)">
                        <path d="M9.995,2.021C7.496,1.916 5.566,2.203 5.566,2.203C4.347,2.291 2.012,2.974 2.012,6.965C2.012,10.921 1.986,15.799 2.012,17.744C2.012,18.932 2.747,21.703 5.293,21.852C8.388,22.032 13.963,22.071 16.52,21.852C17.205,21.813 19.485,21.276 19.773,18.796C20.072,16.226 20.013,14.441 20.013,14.016" style="fill:none;fill-rule:nonzero;stroke:white;stroke-width:1.5px;stroke-miterlimit:4;"/>
                    </g>
                    <g transform="matrix(4.166667,0,0,4.166667,0,0)">
                        <path d="M22,7.016C22,9.777 19.759,12.016 16.995,12.016C14.231,12.016 11.99,9.777 11.99,7.016C11.99,4.254 14.231,2.016 16.995,2.016C19.759,2.016 22,4.254 22,7.016Z" style="fill:none;fill-rule:nonzero;stroke:white;stroke-width:1.5px;stroke-miterlimit:4;"/>
                    </g>
                    <g transform="matrix(4.166667,0,0,4.166667,0,0)">
                        <path d="M6.981,13.016L10.98,13.016" style="fill:none;fill-rule:nonzero;stroke:white;stroke-width:1.5px;stroke-miterlimit:4;"/>
                    </g>
                    <g transform="matrix(4.166667,0,0,4.166667,0,0)">
                        <path d="M6.981,17.016L14.98,17.016" style="fill:none;fill-rule:nonzero;stroke:white;stroke-width:1.5px;stroke-miterlimit:4;"/>
                    </g>
                </g>
            </g>
        </g>
    </g>
</svg>
