<?xml version="1.0" encoding="UTF-8" standalone="no"?>
<!DOCTYPE svg PUBLIC "-//W3C//DTD SVG 1.1//EN" "http://www.w3.org/Graphics/SVG/1.1/DTD/svg11.dtd">
<svg width="100%" height="100%" viewBox="0 0 100 100" version="1.1" xmlns="http://www.w3.org/2000/svg" xmlns:xlink="http://www.w3.org/1999/xlink" xml:space="preserve" xmlns:serif="http://www.serif.com/" style="fill-rule:evenodd;clip-rule:evenodd;stroke-linecap:round;stroke-linejoin:round;stroke-miterlimit:1.5;">
    <g transform="matrix(1,0,0,1,-279,-183)">
        <g id="Plane" transform="matrix(1,0,0,1,147,0)">
            <g id="Outer-Container" serif:id="Outer Container" transform="matrix(0.680272,0,0,0.680272,42.204082,58.510204)">
                <path d="M279,218.28L279,294.72C279,314.192 263.192,330 243.72,330L167.28,330C147.808,330 132,314.192 132,294.72L132,218.28C132,198.808 147.808,183 167.28,183L243.72,183C263.192,183 279,198.808 279,218.28Z" style="fill:rgb(194,229,255);"/>
            </g>
            <g id="Animation" transform="matrix(0.367347,0,0,0.367347,106.510204,138.77551)">
                <path d="M279,218.28L279,294.72C279,314.192 263.192,330 243.72,330L167.28,330C147.808,330 132,314.192 132,294.72L132,218.28C132,198.808 147.808,183 167.28,183L243.72,183C263.192,183 279,198.808 279,218.28Z" style="fill:rgb(0,147,255);stroke:rgb(0,147,255);stroke-width:9.07px;"/>
            </g>
            <g id="Inner-Container" serif:id="Inner Container" transform="matrix(0.47619,0,0,0.47619,84.142857,110.857143)">
                <path d="M279,218.28L279,294.72C279,314.192 263.192,330 243.72,330L167.28,330C147.808,330 132,314.192 132,294.72L132,218.28C132,198.808 147.808,183 167.28,183L243.72,183C263.192,183 279,198.808 279,218.28Z" style="fill:rgb(0,147,255);"/>
            </g>
            <g transform="matrix(0.5,0,0,0.5,182,233)">
                <g transform="matrix(1,0,0,1,-50,-50)">
                    <g transform="matrix(4.166667,0,0,4.166667,0,0)">
                        <path d="M15.867,3.78C16.793,3.032 17.831,2.986 18.964,3.002C19.551,3.011 19.844,3.015 20.079,3.106C20.452,3.251 20.749,3.548 20.894,3.921C20.985,4.156 20.989,4.449 20.998,5.036C21.014,6.169 20.968,7.207 20.22,8.133C19.589,8.913 18.506,9.321 17.985,10.182C17.587,10.839 17.772,11.52 17.943,12.221L19.223,17.466C19.478,18.512 19.284,19.181 18.553,19.912C18.164,20.301 17.84,20.282 17.525,19.779L13.663,13.625L11.818,15.091C11.149,15.623 10.815,15.889 10.639,16.263C10.228,17.139 10.489,18.455 10.502,19.405C10.51,19.93 10.056,20.964 9.414,20.999C9.018,21.021 8.883,20.547 8.755,20.256L7.522,17.454C7.228,16.785 7.216,16.772 6.546,16.478L3.744,15.245C3.453,15.117 2.979,14.982 3.001,14.586C3.036,13.944 4.07,13.49 4.595,13.498C5.545,13.511 6.861,13.772 7.737,13.361C8.111,13.185 8.377,12.851 8.909,12.182L10.375,10.337L4.221,6.475C3.718,6.159 3.699,5.836 4.088,5.447C4.819,4.716 5.489,4.522 6.534,4.777L11.779,6.057C12.48,6.228 13.161,6.413 13.818,6.015C14.679,5.494 15.087,4.411 15.867,3.78Z" style="fill:none;fill-rule:nonzero;stroke:white;stroke-width:1.5px;stroke-miterlimit:4;"/>
                    </g>
                </g>
            </g>
        </g>
    </g>
</svg>
